# xmcd
#
# Track frame offsets:
#	150
#	12430
#	22555
#	37017
#	51485
#	62474
#	79669
#	96243
#	111501
#	126093
#
# Disc length: 1856 seconds
#
# Revision: 1
# Processed by: cddbd v1.5.1PL2 Copyright (c) Steve Scherf et al.
# Submitted via: audiograbber 1.83.01
#
DISCID=7c073e0a
DTITLE=Asleep at the Wheel - 10
DYEAR=1987
DGENRE=Country
TTITLE0=Way Down Texas Way
TTITLE1=tulsa Straight Ahead
TTITLE2=Coast to coast
TTITLE3=House of Blue Lights
TTITLE4=Blowin' Like a Bandit
TTITLE5=I Want a New drug
TTITLE6=Big Foot Stomp
TTITLE7=Boogie Back to Texas
TTITLE8=String of Paris
TTITLE9=Blues Stay Away From Me
EXTD=
EXTT0=
EXTT1=
EXTT2=
EXTT3=
EXTT4=
EXTT5=
EXTT6=
EXTT7=
EXTT8=
EXTT9=
PLAYORDER=
